<svg width="96" height="96" viewBox="0 0 96 96" fill="none" xmlns="http://www.w3.org/2000/svg">
<rect width="96" height="96" fill="#F8F5FF"/>
<g clip-path="url(#clip0_4012_14123)">
<path d="M48 21C36.6597 21 27.4336 30.2261 27.4336 41.5664C27.4336 52.9067 36.6597 62.1328 48 62.1328C59.3403 62.1328 68.5664 52.9067 68.5664 41.5664C68.5664 30.2261 59.3403 21 48 21Z" fill="#7A44FF"/>
<path d="M73.5886 75.5688C67.9579 69.8516 60.4936 66.7031 52.5703 66.7031H43.4297C35.5066 66.7031 28.0421 69.8516 22.4114 75.5688C16.8084 81.2579 13.7227 88.7675 13.7227 96.7148C13.7227 97.9769 14.7458 99 16.0078 99H79.9922C81.2542 99 82.2773 97.9769 82.2773 96.7148C82.2773 88.7675 79.1916 81.2579 73.5886 75.5688Z" fill="#7A44FF"/>
</g>
<defs>
<clipPath id="clip0_4012_14123">
<rect width="78" height="75" fill="white" transform="translate(9 21)"/>
</clipPath>
</defs>
</svg>
